Coordinates
version=1
nRows=30
nColumns=38
inDegrees=no

Units are S.I. units (second, meters, Newtons, ...)
If the header above contains a line with 'inDegrees', this indicates whether rotational values are in degrees (yes) or radians (no).

endheader
time	pelvis_tilt	pelvis_list	pelvis_rotation	pelvis_tx	pelvis_ty	pelvis_tz	hip_flexion_r	hip_adduction_r	hip_rotation_r	knee_angle_r	ankle_angle_r	subtalar_angle_r	mtp_angle_r	hip_flexion_l	hip_adduction_l	hip_rotation_l	knee_angle_l	ankle_angle_l	subtalar_angle_l	mtp_angle_l	lumbar_extension	lumbar_bending	lumbar_rotation	arm_flex_r	arm_add_r	arm_rot_r	elbow_flex_r	pro_sup_r	wrist_flex_r	wrist_dev_r	arm_flex_l	arm_add_l	arm_rot_l	elbow_flex_l	pro_sup_l	wrist_flex_l	wrist_dev_l
1.95	1.38223	1.39825	0.239281	0.618169	1.61995	0.932865	0.349931	0.153715	-0.324813	0.33812	-0.0413489	0	0	0.0643604	-0.268929	-0.137572	1.03661	-0.0860989	0	0	0.0859689	0.181373	-0.256361	-0.289235	-0.112085	-0.205179	0.307442	0.873889	0	0	-0.232774	-0.219789	0.276439	0.625642	0.67723	0	0
1.96	1.3993	1.39423	0.221872	0.618997	1.62875	0.933436	0.336179	0.163769	-0.317653	0.333589	-0.0408009	0	0	0.0956218	-0.274916	-0.119375	1.08881	-0.120143	0	0	0.0816189	0.188384	-0.255844	-0.290747	-0.113247	-0.2101	0.31398	0.874901	0	0	-0.23069	-0.220798	0.283142	0.624855	0.67556	0	0
1.97	1.4196	1.39165	0.201782	0.619751	1.6375	0.93431	0.320914	0.171868	-0.311346	0.329206	-0.0386591	0	0	0.124371	-0.27803	-0.101208	1.13625	-0.146509	0	0	0.0767143	0.193427	-0.256015	-0.291501	-0.113923	-0.213555	0.318101	0.874881	0	0	-0.228351	-0.221636	0.288416	0.622809	0.674036	0	0
1.98	1.43935	1.39108	0.182	0.620447	1.64616	0.935439	0.304962	0.177137	-0.305255	0.32521	-0.0351979	0	0	0.151144	-0.277407	-0.0838822	1.18056	-0.154484	0	0	0.0717268	0.195956	-0.256399	-0.290886	-0.113986	-0.216061	0.318048	0.873706	0	0	-0.226483	-0.221756	0.289521	0.620115	0.675548	0	0
1.99	1.45537	1.39256	0.165152	0.621137	1.6547	0.936781	0.288713	0.179907	-0.298217	0.320397	-0.0319354	0	0	0.176682	-0.273552	-0.0686318	1.22113	-0.144137	0	0	0.0671471	0.195834	-0.256374	-0.288918	-0.113585	-0.219613	0.314367	0.872363	0	0	-0.225595	-0.221359	0.28724	0.617621	0.679764	0	0
2	1.46687	1.39586	0.151574	0.621912	1.66311	0.938283	0.272468	0.180776	-0.2898	0.314401	-0.0296655	0	0	0.201155	-0.267486	-0.0568669	1.25655	-0.124072	0	0	0.0630393	0.193317	-0.255269	-0.286402	-0.112785	-0.221187	0.307836	0.870689	0	0	-0.225728	-0.221827	0.285584	0.616981	0.681264	0	0
2.01	1.47171	1.40056	0.143078	0.62279	1.67136	0.939835	0.257127	0.180232	-0.280129	0.307726	-0.0282118	0	0	0.225211	-0.259778	-0.0486694	1.28641	-0.102282	0	0	0.0596721	0.189083	-0.252664	-0.284363	-0.111779	-0.221075	0.30121	0.868861	0	0	-0.226381	-0.222949	0.284962	0.617352	0.680191	0	0
2.02	1.46962	1.40586	0.140247	0.623747	1.67942	0.941339	0.242987	0.179041	-0.269509	0.300731	-0.0268846	0	0	0.249502	-0.251227	-0.0425673	1.31115	-0.0832111	0	0	0.0571488	0.184146	-0.24864	-0.283291	-0.110585	-0.22255	0.296445	0.867488	0	0	-0.227246	-0.223529	0.281748	0.61812	0.678921	0	0
2.03	1.4661	1.41151	0.137659	0.624797	1.68733	0.942818	0.22875	0.177674	-0.25795	0.29302	-0.0253759	0	0	0.273007	-0.242385	-0.0382801	1.33061	-0.068842	0	0	0.0540937	0.178989	-0.242949	-0.283263	-0.109298	-0.225286	0.294378	0.867052	0	0	-0.228181	-0.225148	0.280107	0.620714	0.677026	0	0
2.04	1.46432	1.41733	0.132505	0.62589	1.69511	0.944267	0.213374	0.176364	-0.245616	0.283773	-0.0239057	0	0	0.295244	-0.233578	-0.0353058	1.34501	-0.0591383	0	0	0.0501615	0.173889	-0.236203	-0.284221	-0.10802	-0.226896	0.294814	0.867347	0	0	-0.229103	-0.227772	0.280233	0.624429	0.675246	0	0
2.05	1.46316	1.42306	0.126125	0.626987	1.70276	0.94564	0.197581	0.174888	-0.233812	0.273736	-0.0226162	0	0	0.316691	-0.225443	-0.0336972	1.35481	-0.0532619	0	0	0.0457058	0.169114	-0.228324	-0.286256	-0.106789	-0.229736	0.298703	0.868477	0	0	-0.229537	-0.230085	0.279223	0.628167	0.673295	0	0
2.06	1.46348	1.42868	0.117909	0.628085	1.71031	0.946923	0.181467	0.173117	-0.222907	0.26337	-0.0210736	0	0	0.337084	-0.218134	-0.0332842	1.35999	-0.0496925	0	0	0.0406695	0.164659	-0.21963	-0.288955	-0.105674	-0.234775	0.305803	0.87097	0	0	-0.229462	-0.232073	0.277211	0.63154	0.672405	0	0
2.07	1.46923	1.43429	0.103512	0.629241	1.71783	0.948154	0.164355	0.171262	-0.211497	0.252652	-0.0193423	0	0	0.355304	-0.211614	-0.0343692	1.36048	-0.0465542	0	0	0.0344833	0.16033	-0.210291	-0.291107	-0.104418	-0.24022	0.313096	0.875008	0	0	-0.229394	-0.234148	0.274848	0.634909	0.67295	0	0
2.08	1.48235	1.43984	0.0807945	0.630476	1.72529	0.949349	0.146376	0.169313	-0.199067	0.242012	-0.0177754	0	0	0.371204	-0.206157	-0.0370934	1.35673	-0.0428267	0	0	0.0269933	0.156104	-0.200146	-0.292563	-0.102921	-0.247549	0.320845	0.882249	0	0	-0.229115	-0.235888	0.271063	0.637655	0.675672	0	0
2.09	1.49608	1.44547	0.0569791	0.631734	1.73267	0.950446	0.129372	0.166726	-0.186828	0.23278	-0.0157084	0	0	0.38615	-0.201182	-0.040714	1.34917	-0.036994	0	0	0.0195661	0.151519	-0.190196	-0.292717	-0.101893	-0.252546	0.327763	0.889285	0	0	-0.228899	-0.2372	0.266031	0.639473	0.679142	0	0
2.1	1.51238	1.45162	0.0301268	0.632978	1.73995	0.951477	0.113428	0.162993	-0.174611	0.225511	-0.0132006	0	0	0.399559	-0.195853	-0.0452882	1.33753	-0.0298572	0	0	0.0118236	0.146134	-0.179926	-0.291797	-0.101061	-0.254125	0.333282	0.893093	0	0	-0.228395	-0.239616	0.264471	0.641544	0.680805	0	0
2.11	1.53566	1.45818	-0.00412725	0.634212	1.74717	0.952512	0.0974725	0.158477	-0.161351	0.219085	-0.0108159	0	0	0.410659	-0.190232	-0.0508918	1.32154	-0.0214284	0	0	0.0033667	0.140023	-0.16964	-0.289714	-0.10033	-0.254584	0.338203	0.896904	0	0	-0.227515	-0.241325	0.261572	0.642189	0.682461	0	0
2.12	1.56299	1.46462	-0.0419415	0.635422	1.75437	0.953479	0.0818935	0.153715	-0.148217	0.213283	-0.00807712	0	0	0.420561	-0.184732	-0.05652	1.30183	-0.0120484	0	0	-0.0048786	0.133544	-0.160349	-0.286147	-0.099564	-0.253515	0.340577	0.899798	0	0	-0.22641	-0.242335	0.257185	0.641165	0.684226	0	0
2.13	1.58795	1.47062	-0.076356	0.636518	1.76149	0.954272	0.0678991	0.148935	-0.136766	0.208739	-0.00457738	0	0	0.430477	-0.179468	-0.0614771	1.27902	-0.00218686	0	0	-0.0122151	0.127094	-0.152444	-0.281587	-0.0988205	-0.251169	0.341529	0.901907	0	0	-0.225478	-0.244106	0.255162	0.640666	0.684401	0	0
2.14	1.61954	1.47652	-0.117272	0.637565	1.76856	0.955008	0.0539233	0.143867	-0.124854	0.20456	-0.000901158	0	0	0.438484	-0.174514	-0.0671859	1.25243	0.00656053	0	0	-0.0198585	0.120287	-0.145046	-0.275996	-0.0980688	-0.248269	0.341618	0.90335	0	0	-0.224512	-0.24624	0.25387	0.640072	0.684647	0	0
2.15	1.65421	1.48211	-0.160722	0.638538	1.77564	0.955683	0.0404694	0.138596	-0.113347	0.200964	0.00277789	0	0	0.44502	-0.170027	-0.0735076	1.22192	0.0143497	0	0	-0.0271164	0.11359	-0.138588	-0.269518	-0.0975916	-0.244446	0.340382	0.904195	0	0	-0.223051	-0.247958	0.253143	0.637646	0.684721	0	0
2.16	1.69123	1.4872	-0.205743	0.639459	1.78276	0.956256	0.0273594	0.133476	-0.102329	0.197593	0.00654565	0	0	0.450271	-0.166502	-0.0806648	1.18789	0.0209383	0	0	-0.0338596	0.10708	-0.133161	-0.262768	-0.0968987	-0.24024	0.338284	0.903972	0	0	-0.221749	-0.250507	0.255052	0.635382	0.683663	0	0
2.17	1.72862	1.49206	-0.250607	0.640314	1.78988	0.956687	0.0148884	0.128332	-0.0921215	0.194657	0.0108323	0	0	0.454112	-0.163279	-0.0883789	1.15046	0.0263901	0	0	-0.0399696	0.100572	-0.128506	-0.25594	-0.0961082	-0.235559	0.336162	0.903383	0	0	-0.220565	-0.252963	0.257345	0.632699	0.681598	0	0
2.18	1.76533	1.49654	-0.29459	0.641164	1.79696	0.956986	0.00338647	0.12332	-0.0820956	0.192621	0.0156543	0	0	0.456538	-0.160876	-0.0975204	1.10923	0.0307581	0	0	-0.0457108	0.0942044	-0.124188	-0.248902	-0.0951534	-0.229956	0.333395	0.901797	0	0	-0.219484	-0.255379	0.258683	0.630024	0.680381	0	0
2.19	1.8109	1.50073	-0.347574	0.642065	1.80406	0.957246	-0.00837375	0.118255	-0.0714816	0.190791	0.020723	0	0	0.456433	-0.159495	-0.109827	1.064	0.0339853	0	0	-0.0517238	0.0876147	-0.119854	-0.242069	-0.0939522	-0.223633	0.330644	0.899229	0	0	-0.218782	-0.258362	0.260665	0.628257	0.678811	0	0
2.2	1.87186	1.50579	-0.412313	0.644013	1.8112	0.957451	-0.0205059	0.113612	-0.0611917	0.189551	0.0253451	0	0	0.454966	-0.17305	-0.127105	1.01413	0.0463903	0	0	-0.0570779	0.0774367	-0.117761	-0.237492	-0.0906065	-0.217148	0.330574	0.895512	0	0	-0.218249	-0.263705	0.263544	0.627831	0.673043	0	0
2.21	1.87907	1.50916	-0.425143	0.644824	1.81841	0.957243	-0.0286198	0.109867	-0.0544023	0.18894	0.0311295	0	0	0.455484	-0.174041	-0.144307	0.964728	0.0502601	0	0	-0.0593633	0.0727295	-0.114853	-0.233274	-0.0892832	-0.214768	0.33158	0.89463	0	0	-0.218374	-0.265799	0.264303	0.626864	0.669997	0	0
2.22	1.92701	1.51141	-0.484571	0.644567	1.82565	0.957208	-0.0397635	0.103769	-0.04653	0.187074	0.0379002	0	0	0.449073	-0.160637	-0.16264	0.911256	0.0455405	0	0	-0.0656097	0.0698806	-0.107665	-0.22779	-0.089928	-0.210972	0.332899	0.891567	0	0	-0.218355	-0.26645	0.26574	0.625629	0.668791	0	0
2.23	1.96792	1.51418	-0.531829	0.645259	1.83306	0.957005	-0.05077	0.099077	-0.040094	0.184933	0.0441975	0	0	0.442597	-0.161621	-0.18493	0.853777	0.0507053	0	0	-0.0694681	0.0646245	-0.104058	-0.224322	-0.0884719	-0.208239	0.334457	0.889475	0	0	-0.218448	-0.269015	0.267991	0.623735	0.668902	0	0
2.24	2.00852	1.51668	-0.5783	0.645858	1.84059	0.956704	-0.0618432	0.0943443	-0.0347316	0.182604	0.0505275	0	0	0.434936	-0.162453	-0.210049	0.79439	0.0554901	0	0	-0.073021	0.0595875	-0.101112	-0.220906	-0.0870221	-0.20697	0.335582	0.888673	0	0	-0.219145	-0.27089	0.268509	0.622986	0.664567	0	0
